<mxfile host="app.diagrams.net" agent="Mozilla/5.0 (X11; Linux x86_64) AppleWebKit/537.36 (KHTML, like Gecko) Chrome/139.0.0.0 Safari/537.36" version="28.2.3">
  <diagram name="Page-1" id="2icPGb5HWvyr74cVK8HZ">
    <mxGraphModel dx="1773" dy="550" grid="1" gridSize="10" guides="1" tooltips="1" connect="1" arrows="1" fold="1" page="1" pageScale="1" pageWidth="827" pageHeight="1169" math="0" shadow="0">
      <root>
        <mxCell id="0" />
        <mxCell id="1" parent="0" />
        <mxCell id="MQS06do1NlFz_cNOQRB2-95" value="User Plane" style="rounded=0;whiteSpace=wrap;html=1;labelPosition=center;verticalLabelPosition=top;align=center;verticalAlign=bottom;fillColor=#ffe6cc;strokeColor=#d79b00;" parent="1" vertex="1">
          <mxGeometry x="-15" y="1312" width="120" height="400" as="geometry" />
        </mxCell>
        <mxCell id="MQS06do1NlFz_cNOQRB2-94" value="" style="rounded=0;whiteSpace=wrap;html=1;fillColor=#dae8fc;strokeColor=#6c8ebf;" parent="1" vertex="1">
          <mxGeometry x="130" y="1312" width="680" height="400" as="geometry" />
        </mxCell>
        <mxCell id="MQS06do1NlFz_cNOQRB2-93" value="" style="rounded=0;whiteSpace=wrap;html=1;fillColor=#dae8fc;strokeColor=#6c8ebf;" parent="1" vertex="1">
          <mxGeometry x="240" y="215" width="570" height="400" as="geometry" />
        </mxCell>
        <mxCell id="MQS06do1NlFz_cNOQRB2-92" value="User Plane" style="rounded=0;whiteSpace=wrap;html=1;labelPosition=center;verticalLabelPosition=top;align=center;verticalAlign=bottom;fillColor=#ffe6cc;strokeColor=#d79b00;" parent="1" vertex="1">
          <mxGeometry x="109" y="215" width="120" height="400" as="geometry" />
        </mxCell>
        <mxCell id="MQS06do1NlFz_cNOQRB2-91" value="" style="rounded=0;whiteSpace=wrap;html=1;fillColor=#dae8fc;strokeColor=#6c8ebf;" parent="1" vertex="1">
          <mxGeometry x="130" y="760" width="680" height="400" as="geometry" />
        </mxCell>
        <mxCell id="MQS06do1NlFz_cNOQRB2-90" value="User Plane" style="rounded=0;whiteSpace=wrap;html=1;labelPosition=center;verticalLabelPosition=top;align=center;verticalAlign=bottom;fillColor=#ffe6cc;strokeColor=#d79b00;" parent="1" vertex="1">
          <mxGeometry x="-6" y="760" width="120" height="400" as="geometry" />
        </mxCell>
        <mxCell id="MQS06do1NlFz_cNOQRB2-1" value="Storage&lt;div&gt;&lt;br&gt;&lt;/div&gt;&lt;div style=&quot;text-align: left;&quot;&gt;postgress w/&lt;/div&gt;&lt;div style=&quot;text-align: left;&quot;&gt;Timescale extension&lt;/div&gt;" style="shape=cylinder3;whiteSpace=wrap;html=1;boundedLbl=1;backgroundOutline=1;size=15;" parent="1" vertex="1">
          <mxGeometry x="690" y="320" width="88" height="140" as="geometry" />
        </mxCell>
        <mxCell id="MQS06do1NlFz_cNOQRB2-2" value="&lt;font style=&quot;color: rgb(0, 0, 0);&quot;&gt;weather web&lt;/font&gt;&lt;div&gt;&lt;font style=&quot;color: rgb(0, 0, 0);&quot;&gt;service&lt;br&gt;&lt;/font&gt;&lt;div style=&quot;text-align: left;&quot;&gt;&lt;font style=&quot;font-size: 13px; color: rgb(0, 0, 0);&quot;&gt;POST, PUT, DELETE /station&lt;/font&gt;&lt;/div&gt;&lt;div style=&quot;text-align: left;&quot;&gt;&lt;font style=&quot;font-size: 13px; color: rgb(0, 0, 0);&quot;&gt;POST /sensor&lt;/font&gt;&lt;/div&gt;&lt;div style=&quot;text-align: left;&quot;&gt;&lt;font style=&quot;font-size: 13px; color: rgb(0, 0, 0);&quot;&gt;POST /ingest&lt;/font&gt;&lt;/div&gt;&lt;/div&gt;&lt;div style=&quot;text-align: left;&quot;&gt;&lt;font style=&quot;font-size: 13px; color: rgb(0, 0, 0);&quot;&gt;POST /forecast&lt;/font&gt;&lt;/div&gt;&lt;div style=&quot;text-align: left;&quot;&gt;&lt;font style=&quot;font-size: 13px;&quot;&gt;GET&amp;nbsp;&lt;span style=&quot;background-color: rgb(255, 255, 255); font-family: &amp;quot;Droid Sans Mono&amp;quot;, &amp;quot;monospace&amp;quot;, monospace; white-space: pre;&quot;&gt;/forecast/&amp;lt;city&amp;gt;/&amp;lt;usrdate&amp;gt;&lt;/span&gt;&lt;/font&gt;&lt;/div&gt;&lt;div&gt;&lt;span style=&quot;background-color: rgb(255, 255, 255); font-family: &amp;quot;Droid Sans Mono&amp;quot;, &amp;quot;monospace&amp;quot;, monospace; white-space: pre;&quot;&gt;&lt;div style=&quot;text-align: left; line-height: 19px;&quot;&gt;&lt;font style=&quot;font-size: 13px; color: rgb(0, 0, 0);&quot;&gt;GET /weather/&amp;lt;city&amp;gt;/&amp;lt;usrdate&amp;gt;&lt;/font&gt;&lt;/div&gt;&lt;div style=&quot;color: rgb(0, 0, 0); text-align: left; line-height: 19px;&quot;&gt;&lt;span style=&quot;color: rgb(163, 21, 21);&quot;&gt;&lt;br&gt;&lt;/span&gt;&lt;/div&gt;&lt;/span&gt;&lt;/div&gt;&lt;div style=&quot;text-align: left;&quot;&gt;flask, SQLAlchemy&amp;nbsp;&lt;/div&gt;&lt;div style=&quot;text-align: left;&quot;&gt;w/ async pg connection&lt;/div&gt;" style="rounded=1;whiteSpace=wrap;html=1;" parent="1" vertex="1">
          <mxGeometry x="270" y="300" width="370" height="180" as="geometry" />
        </mxCell>
        <mxCell id="MQS06do1NlFz_cNOQRB2-3" style="edgeStyle=none;curved=1;rounded=0;orthogonalLoop=1;jettySize=auto;html=1;exitX=1;exitY=0.5;exitDx=0;exitDy=0;entryX=0;entryY=0.5;entryDx=0;entryDy=0;entryPerimeter=0;fontSize=12;startSize=8;endSize=8;" parent="1" source="MQS06do1NlFz_cNOQRB2-2" target="MQS06do1NlFz_cNOQRB2-1" edge="1">
          <mxGeometry relative="1" as="geometry" />
        </mxCell>
        <mxCell id="MQS06do1NlFz_cNOQRB2-12" style="edgeStyle=none;curved=1;rounded=0;orthogonalLoop=1;jettySize=auto;html=1;exitX=0.5;exitY=0.5;exitDx=0;exitDy=0;exitPerimeter=0;entryX=0;entryY=0;entryDx=0;entryDy=0;fontSize=12;startSize=8;endSize=8;" parent="1" source="MQS06do1NlFz_cNOQRB2-4" target="MQS06do1NlFz_cNOQRB2-2" edge="1">
          <mxGeometry relative="1" as="geometry" />
        </mxCell>
        <mxCell id="MQS06do1NlFz_cNOQRB2-4" value="User" style="shape=umlActor;verticalLabelPosition=bottom;verticalAlign=top;html=1;outlineConnect=0;" parent="1" vertex="1">
          <mxGeometry x="130" y="220" width="30" height="60" as="geometry" />
        </mxCell>
        <mxCell id="MQS06do1NlFz_cNOQRB2-10" style="edgeStyle=none;curved=1;rounded=0;orthogonalLoop=1;jettySize=auto;html=1;exitX=1;exitY=0.5;exitDx=0;exitDy=0;exitPerimeter=0;entryX=0;entryY=0.5;entryDx=0;entryDy=0;fontSize=12;startSize=8;endSize=8;" parent="1" source="MQS06do1NlFz_cNOQRB2-6" target="MQS06do1NlFz_cNOQRB2-2" edge="1">
          <mxGeometry relative="1" as="geometry" />
        </mxCell>
        <mxCell id="MQS06do1NlFz_cNOQRB2-6" value="Weather&lt;div&gt;Station&lt;/div&gt;" style="verticalLabelPosition=bottom;verticalAlign=top;html=1;shape=mxgraph.basic.sun" parent="1" vertex="1">
          <mxGeometry x="120" y="340" width="50" height="60" as="geometry" />
        </mxCell>
        <mxCell id="MQS06do1NlFz_cNOQRB2-11" style="edgeStyle=none;curved=1;rounded=0;orthogonalLoop=1;jettySize=auto;html=1;exitX=1;exitY=0.5;exitDx=0;exitDy=0;exitPerimeter=0;fontSize=12;startSize=8;endSize=8;entryX=0;entryY=0.842;entryDx=0;entryDy=0;entryPerimeter=0;" parent="1" source="MQS06do1NlFz_cNOQRB2-8" target="MQS06do1NlFz_cNOQRB2-2" edge="1">
          <mxGeometry relative="1" as="geometry">
            <mxPoint x="370" y="360" as="targetPoint" />
          </mxGeometry>
        </mxCell>
        <mxCell id="MQS06do1NlFz_cNOQRB2-8" value="Weather&lt;div&gt;Station&lt;/div&gt;" style="verticalLabelPosition=bottom;verticalAlign=top;html=1;shape=mxgraph.basic.sun" parent="1" vertex="1">
          <mxGeometry x="120" y="460" width="50" height="60" as="geometry" />
        </mxCell>
        <mxCell id="MQS06do1NlFz_cNOQRB2-13" value="&lt;b&gt;&lt;font style=&quot;font-size: 14px;&quot;&gt;MVP&lt;/font&gt;&lt;/b&gt;&lt;div&gt;&lt;b&gt;&lt;font style=&quot;font-size: 14px;&quot;&gt;Archi&lt;/font&gt;&lt;/b&gt;&lt;b style=&quot;background-color: transparent; color: light-dark(rgb(0, 0, 0), rgb(255, 255, 255));&quot;&gt;&lt;font style=&quot;font-size: 14px;&quot;&gt;tecture&lt;/font&gt;&lt;/b&gt;&lt;/div&gt;" style="text;html=1;align=center;verticalAlign=middle;whiteSpace=wrap;rounded=0;" parent="1" vertex="1">
          <mxGeometry x="414" y="150" width="60" height="30" as="geometry" />
        </mxCell>
        <mxCell id="MQS06do1NlFz_cNOQRB2-14" value="Storage&lt;br&gt;(Leader)" style="shape=cylinder3;whiteSpace=wrap;html=1;boundedLbl=1;backgroundOutline=1;size=15;" parent="1" vertex="1">
          <mxGeometry x="699" y="942" width="91" height="80" as="geometry" />
        </mxCell>
        <mxCell id="MQS06do1NlFz_cNOQRB2-15" value="&lt;div&gt;&lt;span style=&quot;background-color: transparent; color: light-dark(rgb(0, 0, 0), rgb(255, 255, 255));&quot;&gt;weather web&lt;/span&gt;&lt;/div&gt;&lt;div&gt;service&lt;br&gt;&lt;div&gt;&lt;br&gt;&lt;/div&gt;&lt;/div&gt;" style="rounded=1;whiteSpace=wrap;html=1;" parent="1" vertex="1">
          <mxGeometry x="455" y="900" width="120" height="60" as="geometry" />
        </mxCell>
        <mxCell id="MQS06do1NlFz_cNOQRB2-16" style="edgeStyle=none;curved=1;rounded=0;orthogonalLoop=1;jettySize=auto;html=1;exitX=1;exitY=0.5;exitDx=0;exitDy=0;entryX=0;entryY=0.5;entryDx=0;entryDy=0;entryPerimeter=0;fontSize=12;startSize=8;endSize=8;" parent="1" source="MQS06do1NlFz_cNOQRB2-15" target="MQS06do1NlFz_cNOQRB2-14" edge="1">
          <mxGeometry relative="1" as="geometry" />
        </mxCell>
        <mxCell id="MQS06do1NlFz_cNOQRB2-47" value="Writes" style="edgeLabel;html=1;align=center;verticalAlign=middle;resizable=0;points=[];fontSize=12;" parent="MQS06do1NlFz_cNOQRB2-16" vertex="1" connectable="0">
          <mxGeometry y="1" relative="1" as="geometry">
            <mxPoint as="offset" />
          </mxGeometry>
        </mxCell>
        <mxCell id="MQS06do1NlFz_cNOQRB2-17" style="edgeStyle=none;curved=1;rounded=0;orthogonalLoop=1;jettySize=auto;html=1;exitX=0.5;exitY=0.5;exitDx=0;exitDy=0;exitPerimeter=0;entryX=0;entryY=0;entryDx=0;entryDy=0;fontSize=12;startSize=8;endSize=8;fillColor=#dae8fc;strokeColor=#6c8ebf;strokeWidth=3;startArrow=classic;startFill=1;" parent="1" source="MQS06do1NlFz_cNOQRB2-18" target="MQS06do1NlFz_cNOQRB2-25" edge="1">
          <mxGeometry relative="1" as="geometry" />
        </mxCell>
        <mxCell id="MQS06do1NlFz_cNOQRB2-36" value="Reads/Writes" style="edgeLabel;html=1;align=center;verticalAlign=middle;resizable=0;points=[];fontSize=12;" parent="MQS06do1NlFz_cNOQRB2-17" vertex="1" connectable="0">
          <mxGeometry x="-0.0334" y="-1" relative="1" as="geometry">
            <mxPoint as="offset" />
          </mxGeometry>
        </mxCell>
        <mxCell id="MQS06do1NlFz_cNOQRB2-18" value="User" style="shape=umlActor;verticalLabelPosition=bottom;verticalAlign=top;html=1;outlineConnect=0;" parent="1" vertex="1">
          <mxGeometry x="30" y="770" width="30" height="60" as="geometry" />
        </mxCell>
        <mxCell id="MQS06do1NlFz_cNOQRB2-19" style="edgeStyle=none;curved=1;rounded=0;orthogonalLoop=1;jettySize=auto;html=1;exitX=1;exitY=0.5;exitDx=0;exitDy=0;exitPerimeter=0;entryX=-0.027;entryY=0.373;entryDx=0;entryDy=0;fontSize=12;startSize=8;endSize=8;entryPerimeter=0;" parent="1" source="MQS06do1NlFz_cNOQRB2-20" target="MQS06do1NlFz_cNOQRB2-25" edge="1">
          <mxGeometry relative="1" as="geometry" />
        </mxCell>
        <mxCell id="MQS06do1NlFz_cNOQRB2-51" value="Write" style="edgeLabel;html=1;align=center;verticalAlign=middle;resizable=0;points=[];fontSize=12;" parent="MQS06do1NlFz_cNOQRB2-19" vertex="1" connectable="0">
          <mxGeometry x="-0.1564" y="4" relative="1" as="geometry">
            <mxPoint as="offset" />
          </mxGeometry>
        </mxCell>
        <mxCell id="MQS06do1NlFz_cNOQRB2-20" value="Weather&lt;div&gt;Station&lt;/div&gt;" style="verticalLabelPosition=bottom;verticalAlign=top;html=1;shape=mxgraph.basic.sun" parent="1" vertex="1">
          <mxGeometry x="30" y="900" width="50" height="60" as="geometry" />
        </mxCell>
        <mxCell id="MQS06do1NlFz_cNOQRB2-21" style="edgeStyle=none;curved=1;rounded=0;orthogonalLoop=1;jettySize=auto;html=1;exitX=1;exitY=0.5;exitDx=0;exitDy=0;exitPerimeter=0;fontSize=12;startSize=8;endSize=8;entryX=0;entryY=0.75;entryDx=0;entryDy=0;" parent="1" source="MQS06do1NlFz_cNOQRB2-22" target="MQS06do1NlFz_cNOQRB2-25" edge="1">
          <mxGeometry relative="1" as="geometry">
            <mxPoint x="364" y="930" as="targetPoint" />
          </mxGeometry>
        </mxCell>
        <mxCell id="MQS06do1NlFz_cNOQRB2-52" value="Write" style="edgeLabel;html=1;align=center;verticalAlign=middle;resizable=0;points=[];fontSize=12;" parent="MQS06do1NlFz_cNOQRB2-21" vertex="1" connectable="0">
          <mxGeometry x="-0.1531" y="2" relative="1" as="geometry">
            <mxPoint as="offset" />
          </mxGeometry>
        </mxCell>
        <mxCell id="MQS06do1NlFz_cNOQRB2-22" value="Weather&lt;div&gt;Station&lt;/div&gt;" style="verticalLabelPosition=bottom;verticalAlign=top;html=1;shape=mxgraph.basic.sun" parent="1" vertex="1">
          <mxGeometry x="30" y="1030" width="50" height="60" as="geometry" />
        </mxCell>
        <mxCell id="MQS06do1NlFz_cNOQRB2-24" value="weather web&lt;div&gt;service&lt;br&gt;&lt;div&gt;&lt;br&gt;&lt;/div&gt;&lt;/div&gt;" style="rounded=1;whiteSpace=wrap;html=1;" parent="1" vertex="1">
          <mxGeometry x="471" y="930" width="120" height="60" as="geometry" />
        </mxCell>
        <mxCell id="MQS06do1NlFz_cNOQRB2-23" value="weather web&lt;div&gt;service&lt;br&gt;&lt;div&gt;&lt;br&gt;&lt;/div&gt;&lt;/div&gt;" style="rounded=1;whiteSpace=wrap;html=1;" parent="1" vertex="1">
          <mxGeometry x="481" y="960" width="120" height="60" as="geometry" />
        </mxCell>
        <mxCell id="MQS06do1NlFz_cNOQRB2-27" style="edgeStyle=none;curved=1;rounded=0;orthogonalLoop=1;jettySize=auto;html=1;exitX=1;exitY=0.5;exitDx=0;exitDy=0;entryX=0;entryY=0.5;entryDx=0;entryDy=0;fontSize=12;startSize=8;endSize=8;" parent="1" source="MQS06do1NlFz_cNOQRB2-25" target="MQS06do1NlFz_cNOQRB2-15" edge="1">
          <mxGeometry relative="1" as="geometry" />
        </mxCell>
        <mxCell id="MQS06do1NlFz_cNOQRB2-38" value="Write" style="edgeLabel;html=1;align=center;verticalAlign=middle;resizable=0;points=[];fontSize=12;" parent="MQS06do1NlFz_cNOQRB2-27" vertex="1" connectable="0">
          <mxGeometry y="1" relative="1" as="geometry">
            <mxPoint as="offset" />
          </mxGeometry>
        </mxCell>
        <mxCell id="MQS06do1NlFz_cNOQRB2-28" style="edgeStyle=none;curved=1;rounded=0;orthogonalLoop=1;jettySize=auto;html=1;exitX=1;exitY=0.75;exitDx=0;exitDy=0;entryX=0;entryY=0.5;entryDx=0;entryDy=0;fontSize=12;startSize=8;endSize=8;" parent="1" source="MQS06do1NlFz_cNOQRB2-25" target="MQS06do1NlFz_cNOQRB2-24" edge="1">
          <mxGeometry relative="1" as="geometry" />
        </mxCell>
        <mxCell id="MQS06do1NlFz_cNOQRB2-39" value="Write" style="edgeLabel;html=1;align=center;verticalAlign=middle;resizable=0;points=[];fontSize=12;" parent="MQS06do1NlFz_cNOQRB2-28" vertex="1" connectable="0">
          <mxGeometry x="-0.1834" y="1" relative="1" as="geometry">
            <mxPoint as="offset" />
          </mxGeometry>
        </mxCell>
        <mxCell id="MQS06do1NlFz_cNOQRB2-29" style="edgeStyle=none;curved=1;rounded=0;orthogonalLoop=1;jettySize=auto;html=1;exitX=1;exitY=1;exitDx=0;exitDy=0;entryX=0;entryY=0.75;entryDx=0;entryDy=0;fontSize=12;startSize=8;endSize=8;" parent="1" source="MQS06do1NlFz_cNOQRB2-25" target="MQS06do1NlFz_cNOQRB2-23" edge="1">
          <mxGeometry relative="1" as="geometry" />
        </mxCell>
        <mxCell id="MQS06do1NlFz_cNOQRB2-40" value="Write" style="edgeLabel;html=1;align=center;verticalAlign=middle;resizable=0;points=[];fontSize=12;" parent="MQS06do1NlFz_cNOQRB2-29" vertex="1" connectable="0">
          <mxGeometry x="-0.2312" y="-1" relative="1" as="geometry">
            <mxPoint as="offset" />
          </mxGeometry>
        </mxCell>
        <mxCell id="MQS06do1NlFz_cNOQRB2-25" value="API GW/&lt;div&gt;Load Balancer&lt;/div&gt;" style="rounded=1;whiteSpace=wrap;html=1;" parent="1" vertex="1">
          <mxGeometry x="160" y="900" width="120" height="60" as="geometry" />
        </mxCell>
        <mxCell id="MQS06do1NlFz_cNOQRB2-26" value="Stateless workers" style="text;html=1;align=center;verticalAlign=middle;whiteSpace=wrap;rounded=0;" parent="1" vertex="1">
          <mxGeometry x="501" y="1031" width="60" height="30" as="geometry" />
        </mxCell>
        <mxCell id="MQS06do1NlFz_cNOQRB2-35" style="edgeStyle=none;curved=1;rounded=0;orthogonalLoop=1;jettySize=auto;html=1;exitX=1;exitY=1;exitDx=0;exitDy=0;entryX=0.5;entryY=0;entryDx=0;entryDy=0;fontSize=12;startSize=8;endSize=8;startArrow=blockThin;startFill=1;strokeWidth=2;fillColor=#dae8fc;strokeColor=#6c8ebf;" parent="1" source="MQS06do1NlFz_cNOQRB2-30" target="MQS06do1NlFz_cNOQRB2-15" edge="1">
          <mxGeometry relative="1" as="geometry" />
        </mxCell>
        <mxCell id="MQS06do1NlFz_cNOQRB2-42" value="Reads" style="edgeLabel;html=1;align=center;verticalAlign=middle;resizable=0;points=[];fontSize=12;" parent="MQS06do1NlFz_cNOQRB2-35" vertex="1" connectable="0">
          <mxGeometry x="-0.0176" y="3" relative="1" as="geometry">
            <mxPoint as="offset" />
          </mxGeometry>
        </mxCell>
        <mxCell id="MQS06do1NlFz_cNOQRB2-30" value="&lt;div&gt;HTTP&lt;/div&gt;Cache" style="rounded=1;whiteSpace=wrap;html=1;" parent="1" vertex="1">
          <mxGeometry x="360" y="770" width="95" height="60" as="geometry" />
        </mxCell>
        <mxCell id="MQS06do1NlFz_cNOQRB2-33" value="" style="endArrow=classic;html=1;rounded=0;fontSize=12;startSize=8;endSize=8;curved=1;exitX=1;exitY=0.25;exitDx=0;exitDy=0;entryX=0;entryY=1;entryDx=0;entryDy=0;fillColor=#dae8fc;strokeColor=#6c8ebf;strokeWidth=3;startArrow=classic;startFill=1;" parent="1" source="MQS06do1NlFz_cNOQRB2-25" target="MQS06do1NlFz_cNOQRB2-30" edge="1">
          <mxGeometry width="50" height="50" relative="1" as="geometry">
            <mxPoint x="320" y="830" as="sourcePoint" />
            <mxPoint x="370" y="780" as="targetPoint" />
          </mxGeometry>
        </mxCell>
        <mxCell id="MQS06do1NlFz_cNOQRB2-34" value="Reads" style="edgeLabel;html=1;align=center;verticalAlign=middle;resizable=0;points=[];fontSize=12;" parent="MQS06do1NlFz_cNOQRB2-33" vertex="1" connectable="0">
          <mxGeometry x="-0.2595" y="2" relative="1" as="geometry">
            <mxPoint as="offset" />
          </mxGeometry>
        </mxCell>
        <mxCell id="MQS06do1NlFz_cNOQRB2-37" value="Storage&lt;div&gt;(Follower)&lt;/div&gt;" style="shape=cylinder3;whiteSpace=wrap;html=1;boundedLbl=1;backgroundOutline=1;size=15;" parent="1" vertex="1">
          <mxGeometry x="699" y="790" width="86" height="80" as="geometry" />
        </mxCell>
        <mxCell id="MQS06do1NlFz_cNOQRB2-41" value="Replicated&lt;div&gt;Storage&lt;/div&gt;&lt;div&gt;Layer&lt;/div&gt;" style="text;html=1;align=center;verticalAlign=middle;whiteSpace=wrap;rounded=0;" parent="1" vertex="1">
          <mxGeometry x="717" y="1031" width="60" height="30" as="geometry" />
        </mxCell>
        <mxCell id="MQS06do1NlFz_cNOQRB2-43" style="edgeStyle=none;curved=1;rounded=0;orthogonalLoop=1;jettySize=auto;html=1;exitX=1;exitY=0.25;exitDx=0;exitDy=0;entryX=0;entryY=0.5;entryDx=0;entryDy=0;entryPerimeter=0;fontSize=12;startSize=8;endSize=8;startArrow=blockThin;startFill=1;strokeWidth=2;fillColor=#dae8fc;strokeColor=#6c8ebf;" parent="1" source="MQS06do1NlFz_cNOQRB2-15" target="MQS06do1NlFz_cNOQRB2-37" edge="1">
          <mxGeometry relative="1" as="geometry" />
        </mxCell>
        <mxCell id="MQS06do1NlFz_cNOQRB2-44" value="Reads" style="edgeLabel;html=1;align=center;verticalAlign=middle;resizable=0;points=[];fontSize=12;" parent="MQS06do1NlFz_cNOQRB2-43" vertex="1" connectable="0">
          <mxGeometry x="-0.0613" y="3" relative="1" as="geometry">
            <mxPoint as="offset" />
          </mxGeometry>
        </mxCell>
        <mxCell id="MQS06do1NlFz_cNOQRB2-49" style="edgeStyle=none;curved=1;rounded=0;orthogonalLoop=1;jettySize=auto;html=1;exitX=0.5;exitY=0;exitDx=0;exitDy=0;exitPerimeter=0;entryX=0.5;entryY=1;entryDx=0;entryDy=0;entryPerimeter=0;fontSize=12;startSize=8;endSize=8;" parent="1" source="MQS06do1NlFz_cNOQRB2-14" target="MQS06do1NlFz_cNOQRB2-37" edge="1">
          <mxGeometry relative="1" as="geometry" />
        </mxCell>
        <mxCell id="MQS06do1NlFz_cNOQRB2-50" value="Replicate" style="edgeLabel;html=1;align=center;verticalAlign=middle;resizable=0;points=[];fontSize=12;" parent="MQS06do1NlFz_cNOQRB2-49" vertex="1" connectable="0">
          <mxGeometry x="-0.082" y="1" relative="1" as="geometry">
            <mxPoint as="offset" />
          </mxGeometry>
        </mxCell>
        <mxCell id="MQS06do1NlFz_cNOQRB2-53" value="&lt;div style=&quot;text-align: center;&quot;&gt;&lt;span style=&quot;background-color: transparent; color: light-dark(rgb(0, 0, 0), rgb(255, 255, 255)); font-size: 14px;&quot;&gt;&lt;b&gt;Scaled Up Architecture&lt;/b&gt;&lt;/span&gt;&lt;/div&gt;" style="text;whiteSpace=wrap;html=1;" parent="1" vertex="1">
          <mxGeometry x="388" y="710" width="110" height="40" as="geometry" />
        </mxCell>
        <mxCell id="MQS06do1NlFz_cNOQRB2-54" value="Storage&lt;br&gt;(Leader)" style="shape=cylinder3;whiteSpace=wrap;html=1;boundedLbl=1;backgroundOutline=1;size=15;" parent="1" vertex="1">
          <mxGeometry x="708" y="1492" width="91" height="80" as="geometry" />
        </mxCell>
        <mxCell id="MQS06do1NlFz_cNOQRB2-55" value="&lt;div&gt;&lt;span style=&quot;background-color: transparent; color: light-dark(rgb(0, 0, 0), rgb(255, 255, 255));&quot;&gt;weather web&lt;/span&gt;&lt;/div&gt;&lt;div&gt;service&lt;br&gt;&lt;div&gt;&lt;br&gt;&lt;/div&gt;&lt;/div&gt;" style="rounded=1;whiteSpace=wrap;html=1;" parent="1" vertex="1">
          <mxGeometry x="464" y="1450" width="120" height="60" as="geometry" />
        </mxCell>
        <mxCell id="MQS06do1NlFz_cNOQRB2-56" style="edgeStyle=none;curved=1;rounded=0;orthogonalLoop=1;jettySize=auto;html=1;exitX=1;exitY=0.5;exitDx=0;exitDy=0;entryX=0;entryY=0.5;entryDx=0;entryDy=0;entryPerimeter=0;fontSize=12;startSize=8;endSize=8;" parent="1" source="MQS06do1NlFz_cNOQRB2-55" target="MQS06do1NlFz_cNOQRB2-54" edge="1">
          <mxGeometry relative="1" as="geometry" />
        </mxCell>
        <mxCell id="MQS06do1NlFz_cNOQRB2-57" value="Writes" style="edgeLabel;html=1;align=center;verticalAlign=middle;resizable=0;points=[];fontSize=12;" parent="MQS06do1NlFz_cNOQRB2-56" vertex="1" connectable="0">
          <mxGeometry y="1" relative="1" as="geometry">
            <mxPoint as="offset" />
          </mxGeometry>
        </mxCell>
        <mxCell id="MQS06do1NlFz_cNOQRB2-58" style="edgeStyle=none;curved=1;rounded=0;orthogonalLoop=1;jettySize=auto;html=1;exitX=0.5;exitY=0.5;exitDx=0;exitDy=0;exitPerimeter=0;entryX=0;entryY=0;entryDx=0;entryDy=0;fontSize=12;startSize=8;endSize=8;fillColor=#dae8fc;strokeColor=#6c8ebf;strokeWidth=3;startArrow=classic;startFill=1;" parent="1" source="MQS06do1NlFz_cNOQRB2-60" target="MQS06do1NlFz_cNOQRB2-75" edge="1">
          <mxGeometry relative="1" as="geometry" />
        </mxCell>
        <mxCell id="MQS06do1NlFz_cNOQRB2-59" value="Reads/Writes" style="edgeLabel;html=1;align=center;verticalAlign=middle;resizable=0;points=[];fontSize=12;" parent="MQS06do1NlFz_cNOQRB2-58" vertex="1" connectable="0">
          <mxGeometry x="-0.0334" y="-1" relative="1" as="geometry">
            <mxPoint as="offset" />
          </mxGeometry>
        </mxCell>
        <mxCell id="MQS06do1NlFz_cNOQRB2-60" value="User" style="shape=umlActor;verticalLabelPosition=bottom;verticalAlign=top;html=1;outlineConnect=0;" parent="1" vertex="1">
          <mxGeometry x="39" y="1320" width="30" height="60" as="geometry" />
        </mxCell>
        <mxCell id="MQS06do1NlFz_cNOQRB2-61" style="edgeStyle=none;curved=1;rounded=0;orthogonalLoop=1;jettySize=auto;html=1;exitX=1;exitY=0.5;exitDx=0;exitDy=0;exitPerimeter=0;entryX=-0.027;entryY=0.373;entryDx=0;entryDy=0;fontSize=12;startSize=8;endSize=8;entryPerimeter=0;" parent="1" source="MQS06do1NlFz_cNOQRB2-63" target="MQS06do1NlFz_cNOQRB2-75" edge="1">
          <mxGeometry relative="1" as="geometry" />
        </mxCell>
        <mxCell id="MQS06do1NlFz_cNOQRB2-62" value="Write" style="edgeLabel;html=1;align=center;verticalAlign=middle;resizable=0;points=[];fontSize=12;" parent="MQS06do1NlFz_cNOQRB2-61" vertex="1" connectable="0">
          <mxGeometry x="-0.1564" y="4" relative="1" as="geometry">
            <mxPoint as="offset" />
          </mxGeometry>
        </mxCell>
        <mxCell id="MQS06do1NlFz_cNOQRB2-63" value="Weather&lt;div&gt;Station&lt;/div&gt;" style="verticalLabelPosition=bottom;verticalAlign=top;html=1;shape=mxgraph.basic.sun" parent="1" vertex="1">
          <mxGeometry x="39" y="1450" width="50" height="60" as="geometry" />
        </mxCell>
        <mxCell id="MQS06do1NlFz_cNOQRB2-64" style="edgeStyle=none;curved=1;rounded=0;orthogonalLoop=1;jettySize=auto;html=1;exitX=1;exitY=0.5;exitDx=0;exitDy=0;exitPerimeter=0;fontSize=12;startSize=8;endSize=8;entryX=0;entryY=0.75;entryDx=0;entryDy=0;" parent="1" source="MQS06do1NlFz_cNOQRB2-66" target="MQS06do1NlFz_cNOQRB2-75" edge="1">
          <mxGeometry relative="1" as="geometry">
            <mxPoint x="373" y="1480" as="targetPoint" />
          </mxGeometry>
        </mxCell>
        <mxCell id="MQS06do1NlFz_cNOQRB2-65" value="Write" style="edgeLabel;html=1;align=center;verticalAlign=middle;resizable=0;points=[];fontSize=12;" parent="MQS06do1NlFz_cNOQRB2-64" vertex="1" connectable="0">
          <mxGeometry x="-0.1531" y="2" relative="1" as="geometry">
            <mxPoint as="offset" />
          </mxGeometry>
        </mxCell>
        <mxCell id="MQS06do1NlFz_cNOQRB2-66" value="Weather&lt;div&gt;Station&lt;/div&gt;" style="verticalLabelPosition=bottom;verticalAlign=top;html=1;shape=mxgraph.basic.sun" parent="1" vertex="1">
          <mxGeometry x="39" y="1580" width="50" height="60" as="geometry" />
        </mxCell>
        <mxCell id="MQS06do1NlFz_cNOQRB2-67" value="weather web&lt;div&gt;service&lt;br&gt;&lt;div&gt;&lt;br&gt;&lt;/div&gt;&lt;/div&gt;" style="rounded=1;whiteSpace=wrap;html=1;" parent="1" vertex="1">
          <mxGeometry x="480" y="1480" width="120" height="60" as="geometry" />
        </mxCell>
        <mxCell id="MQS06do1NlFz_cNOQRB2-68" value="weather web&lt;div&gt;service&lt;br&gt;&lt;div&gt;&lt;br&gt;&lt;/div&gt;&lt;/div&gt;" style="rounded=1;whiteSpace=wrap;html=1;" parent="1" vertex="1">
          <mxGeometry x="490" y="1510" width="120" height="60" as="geometry" />
        </mxCell>
        <mxCell id="MQS06do1NlFz_cNOQRB2-69" style="edgeStyle=none;curved=1;rounded=0;orthogonalLoop=1;jettySize=auto;html=1;exitX=1;exitY=0;exitDx=0;exitDy=27.5;entryX=0;entryY=0.5;entryDx=0;entryDy=0;fontSize=12;startSize=8;endSize=8;exitPerimeter=0;" parent="1" source="MQS06do1NlFz_cNOQRB2-97" target="MQS06do1NlFz_cNOQRB2-55" edge="1">
          <mxGeometry relative="1" as="geometry" />
        </mxCell>
        <mxCell id="MQS06do1NlFz_cNOQRB2-70" value="Write" style="edgeLabel;html=1;align=center;verticalAlign=middle;resizable=0;points=[];fontSize=12;" parent="MQS06do1NlFz_cNOQRB2-69" vertex="1" connectable="0">
          <mxGeometry y="1" relative="1" as="geometry">
            <mxPoint as="offset" />
          </mxGeometry>
        </mxCell>
        <mxCell id="MQS06do1NlFz_cNOQRB2-75" value="API GW" style="rounded=1;whiteSpace=wrap;html=1;" parent="1" vertex="1">
          <mxGeometry x="170" y="1492" width="120" height="60" as="geometry" />
        </mxCell>
        <mxCell id="MQS06do1NlFz_cNOQRB2-76" value="Stateless workers" style="text;html=1;align=center;verticalAlign=middle;whiteSpace=wrap;rounded=0;" parent="1" vertex="1">
          <mxGeometry x="515" y="1580" width="60" height="30" as="geometry" />
        </mxCell>
        <mxCell id="MQS06do1NlFz_cNOQRB2-77" style="edgeStyle=none;curved=1;rounded=0;orthogonalLoop=1;jettySize=auto;html=1;exitX=1;exitY=1;exitDx=0;exitDy=0;entryX=0.5;entryY=0;entryDx=0;entryDy=0;fontSize=12;startSize=8;endSize=8;startArrow=blockThin;startFill=1;strokeWidth=2;fillColor=#dae8fc;strokeColor=#6c8ebf;" parent="1" source="MQS06do1NlFz_cNOQRB2-79" target="MQS06do1NlFz_cNOQRB2-55" edge="1">
          <mxGeometry relative="1" as="geometry" />
        </mxCell>
        <mxCell id="MQS06do1NlFz_cNOQRB2-78" value="Reads" style="edgeLabel;html=1;align=center;verticalAlign=middle;resizable=0;points=[];fontSize=12;" parent="MQS06do1NlFz_cNOQRB2-77" vertex="1" connectable="0">
          <mxGeometry x="-0.0176" y="3" relative="1" as="geometry">
            <mxPoint as="offset" />
          </mxGeometry>
        </mxCell>
        <mxCell id="MQS06do1NlFz_cNOQRB2-79" value="&lt;div&gt;HTTP&lt;/div&gt;Cache" style="rounded=1;whiteSpace=wrap;html=1;" parent="1" vertex="1">
          <mxGeometry x="369" y="1320" width="95" height="60" as="geometry" />
        </mxCell>
        <mxCell id="MQS06do1NlFz_cNOQRB2-80" value="" style="endArrow=classic;html=1;rounded=0;fontSize=12;startSize=8;endSize=8;curved=1;exitX=1;exitY=0.25;exitDx=0;exitDy=0;entryX=0;entryY=1;entryDx=0;entryDy=0;fillColor=#dae8fc;strokeColor=#6c8ebf;strokeWidth=3;startArrow=classic;startFill=1;" parent="1" source="MQS06do1NlFz_cNOQRB2-75" target="MQS06do1NlFz_cNOQRB2-79" edge="1">
          <mxGeometry width="50" height="50" relative="1" as="geometry">
            <mxPoint x="329" y="1380" as="sourcePoint" />
            <mxPoint x="379" y="1330" as="targetPoint" />
          </mxGeometry>
        </mxCell>
        <mxCell id="MQS06do1NlFz_cNOQRB2-81" value="Reads" style="edgeLabel;html=1;align=center;verticalAlign=middle;resizable=0;points=[];fontSize=12;" parent="MQS06do1NlFz_cNOQRB2-80" vertex="1" connectable="0">
          <mxGeometry x="-0.2595" y="2" relative="1" as="geometry">
            <mxPoint as="offset" />
          </mxGeometry>
        </mxCell>
        <mxCell id="MQS06do1NlFz_cNOQRB2-82" value="Storage&lt;div&gt;(Follower)&lt;/div&gt;" style="shape=cylinder3;whiteSpace=wrap;html=1;boundedLbl=1;backgroundOutline=1;size=15;" parent="1" vertex="1">
          <mxGeometry x="708" y="1340" width="86" height="80" as="geometry" />
        </mxCell>
        <mxCell id="MQS06do1NlFz_cNOQRB2-83" value="Replicated&lt;div&gt;Storage&lt;/div&gt;&lt;div&gt;Layer&lt;/div&gt;" style="text;html=1;align=center;verticalAlign=middle;whiteSpace=wrap;rounded=0;" parent="1" vertex="1">
          <mxGeometry x="726" y="1581" width="60" height="30" as="geometry" />
        </mxCell>
        <mxCell id="MQS06do1NlFz_cNOQRB2-84" style="edgeStyle=none;curved=1;rounded=0;orthogonalLoop=1;jettySize=auto;html=1;exitX=1;exitY=0.25;exitDx=0;exitDy=0;entryX=0;entryY=0.5;entryDx=0;entryDy=0;entryPerimeter=0;fontSize=12;startSize=8;endSize=8;startArrow=blockThin;startFill=1;strokeWidth=2;fillColor=#dae8fc;strokeColor=#6c8ebf;" parent="1" source="MQS06do1NlFz_cNOQRB2-55" target="MQS06do1NlFz_cNOQRB2-82" edge="1">
          <mxGeometry relative="1" as="geometry" />
        </mxCell>
        <mxCell id="MQS06do1NlFz_cNOQRB2-85" value="Reads" style="edgeLabel;html=1;align=center;verticalAlign=middle;resizable=0;points=[];fontSize=12;" parent="MQS06do1NlFz_cNOQRB2-84" vertex="1" connectable="0">
          <mxGeometry x="-0.0613" y="3" relative="1" as="geometry">
            <mxPoint as="offset" />
          </mxGeometry>
        </mxCell>
        <mxCell id="MQS06do1NlFz_cNOQRB2-86" style="edgeStyle=none;curved=1;rounded=0;orthogonalLoop=1;jettySize=auto;html=1;exitX=0.5;exitY=0;exitDx=0;exitDy=0;exitPerimeter=0;entryX=0.5;entryY=1;entryDx=0;entryDy=0;entryPerimeter=0;fontSize=12;startSize=8;endSize=8;" parent="1" source="MQS06do1NlFz_cNOQRB2-54" target="MQS06do1NlFz_cNOQRB2-82" edge="1">
          <mxGeometry relative="1" as="geometry" />
        </mxCell>
        <mxCell id="MQS06do1NlFz_cNOQRB2-87" value="Replicate" style="edgeLabel;html=1;align=center;verticalAlign=middle;resizable=0;points=[];fontSize=12;" parent="MQS06do1NlFz_cNOQRB2-86" vertex="1" connectable="0">
          <mxGeometry x="-0.082" y="1" relative="1" as="geometry">
            <mxPoint as="offset" />
          </mxGeometry>
        </mxCell>
        <mxCell id="MQS06do1NlFz_cNOQRB2-88" value="&lt;div style=&quot;text-align: center;&quot;&gt;&lt;span style=&quot;background-color: transparent; color: light-dark(rgb(0, 0, 0), rgb(255, 255, 255)); font-size: 14px;&quot;&gt;&lt;b&gt;Scaled Up Architecture&lt;/b&gt;&lt;/span&gt;&lt;/div&gt;&lt;div style=&quot;text-align: center;&quot;&gt;&lt;span style=&quot;background-color: transparent; color: light-dark(rgb(0, 0, 0), rgb(255, 255, 255)); font-size: 14px;&quot;&gt;&lt;b&gt;(Event Driven)&lt;/b&gt;&lt;/span&gt;&lt;/div&gt;" style="text;whiteSpace=wrap;html=1;" parent="1" vertex="1">
          <mxGeometry x="388" y="1251" width="110" height="40" as="geometry" />
        </mxCell>
        <mxCell id="MQS06do1NlFz_cNOQRB2-100" style="edgeStyle=none;curved=1;rounded=0;orthogonalLoop=1;jettySize=auto;html=1;exitX=1;exitY=0.5;exitDx=0;exitDy=0;exitPerimeter=0;entryX=0;entryY=0.5;entryDx=0;entryDy=0;fontSize=12;startSize=8;endSize=8;" parent="1" source="MQS06do1NlFz_cNOQRB2-97" target="MQS06do1NlFz_cNOQRB2-68" edge="1">
          <mxGeometry relative="1" as="geometry" />
        </mxCell>
        <mxCell id="MQS06do1NlFz_cNOQRB2-97" value="Message Broker" style="shape=cylinder3;whiteSpace=wrap;html=1;boundedLbl=1;backgroundOutline=1;size=15;" parent="1" vertex="1">
          <mxGeometry x="340" y="1470" width="86" height="120" as="geometry" />
        </mxCell>
        <mxCell id="MQS06do1NlFz_cNOQRB2-101" style="edgeStyle=none;curved=1;rounded=0;orthogonalLoop=1;jettySize=auto;html=1;exitX=1;exitY=0.5;exitDx=0;exitDy=0;entryX=0;entryY=0;entryDx=0;entryDy=52.5;entryPerimeter=0;fontSize=12;startSize=8;endSize=8;" parent="1" source="MQS06do1NlFz_cNOQRB2-75" target="MQS06do1NlFz_cNOQRB2-97" edge="1">
          <mxGeometry relative="1" as="geometry" />
        </mxCell>
        <mxCell id="MQS06do1NlFz_cNOQRB2-104" value="measurement&lt;div&gt;(Timescale hypetrable)&lt;/div&gt;" style="shape=table;startSize=30;container=1;collapsible=1;childLayout=tableLayout;fixedRows=1;rowLines=0;fontStyle=1;align=center;resizeLast=1;html=1;" parent="1" vertex="1">
          <mxGeometry y="1890" width="180" height="220" as="geometry" />
        </mxCell>
        <mxCell id="MQS06do1NlFz_cNOQRB2-105" value="" style="shape=tableRow;horizontal=0;startSize=0;swimlaneHead=0;swimlaneBody=0;fillColor=none;collapsible=0;dropTarget=0;points=[[0,0.5],[1,0.5]];portConstraint=eastwest;top=0;left=0;right=0;bottom=1;" parent="MQS06do1NlFz_cNOQRB2-104" vertex="1">
          <mxGeometry y="30" width="180" height="60" as="geometry" />
        </mxCell>
        <mxCell id="MQS06do1NlFz_cNOQRB2-106" value="PK, FK&lt;div&gt;PK&lt;/div&gt;" style="shape=partialRectangle;connectable=0;fillColor=none;top=0;left=0;bottom=0;right=0;fontStyle=1;overflow=hidden;whiteSpace=wrap;html=1;" parent="MQS06do1NlFz_cNOQRB2-105" vertex="1">
          <mxGeometry width="49" height="60" as="geometry">
            <mxRectangle width="49" height="60" as="alternateBounds" />
          </mxGeometry>
        </mxCell>
        <mxCell id="MQS06do1NlFz_cNOQRB2-107" value="&lt;div style=&quot;background-color: rgb(255, 255, 255); font-family: &amp;quot;Droid Sans Mono&amp;quot;, &amp;quot;monospace&amp;quot;, monospace; font-weight: normal; font-size: 14px; line-height: 19px; white-space: pre;&quot;&gt;sensor_id&lt;/div&gt;&lt;div style=&quot;background-color: rgb(255, 255, 255); font-family: &amp;quot;Droid Sans Mono&amp;quot;, &amp;quot;monospace&amp;quot;, monospace; font-weight: normal; font-size: 14px; line-height: 19px; white-space: pre;&quot;&gt;&lt;div style=&quot;line-height: 19px;&quot;&gt;date&lt;/div&gt;&lt;/div&gt;" style="shape=partialRectangle;connectable=0;fillColor=none;top=0;left=0;bottom=0;right=0;align=left;spacingLeft=6;fontStyle=5;overflow=hidden;whiteSpace=wrap;html=1;" parent="MQS06do1NlFz_cNOQRB2-105" vertex="1">
          <mxGeometry x="49" width="131" height="60" as="geometry">
            <mxRectangle width="131" height="60" as="alternateBounds" />
          </mxGeometry>
        </mxCell>
        <mxCell id="MQS06do1NlFz_cNOQRB2-111" value="" style="shape=tableRow;horizontal=0;startSize=0;swimlaneHead=0;swimlaneBody=0;fillColor=none;collapsible=0;dropTarget=0;points=[[0,0.5],[1,0.5]];portConstraint=eastwest;top=0;left=0;right=0;bottom=0;" parent="MQS06do1NlFz_cNOQRB2-104" vertex="1">
          <mxGeometry y="90" width="180" height="30" as="geometry" />
        </mxCell>
        <mxCell id="MQS06do1NlFz_cNOQRB2-112" value="FK" style="shape=partialRectangle;connectable=0;fillColor=none;top=0;left=0;bottom=0;right=0;editable=1;overflow=hidden;whiteSpace=wrap;html=1;" parent="MQS06do1NlFz_cNOQRB2-111" vertex="1">
          <mxGeometry width="49" height="30" as="geometry">
            <mxRectangle width="49" height="30" as="alternateBounds" />
          </mxGeometry>
        </mxCell>
        <mxCell id="MQS06do1NlFz_cNOQRB2-113" value="station" style="shape=partialRectangle;connectable=0;fillColor=none;top=0;left=0;bottom=0;right=0;align=left;spacingLeft=6;overflow=hidden;whiteSpace=wrap;html=1;" parent="MQS06do1NlFz_cNOQRB2-111" vertex="1">
          <mxGeometry x="49" width="131" height="30" as="geometry">
            <mxRectangle width="131" height="30" as="alternateBounds" />
          </mxGeometry>
        </mxCell>
        <mxCell id="MQS06do1NlFz_cNOQRB2-108" value="" style="shape=tableRow;horizontal=0;startSize=0;swimlaneHead=0;swimlaneBody=0;fillColor=none;collapsible=0;dropTarget=0;points=[[0,0.5],[1,0.5]];portConstraint=eastwest;top=0;left=0;right=0;bottom=0;" parent="MQS06do1NlFz_cNOQRB2-104" vertex="1">
          <mxGeometry y="120" width="180" height="30" as="geometry" />
        </mxCell>
        <mxCell id="MQS06do1NlFz_cNOQRB2-109" value="" style="shape=partialRectangle;connectable=0;fillColor=none;top=0;left=0;bottom=0;right=0;editable=1;overflow=hidden;whiteSpace=wrap;html=1;" parent="MQS06do1NlFz_cNOQRB2-108" vertex="1">
          <mxGeometry width="49" height="30" as="geometry">
            <mxRectangle width="49" height="30" as="alternateBounds" />
          </mxGeometry>
        </mxCell>
        <mxCell id="MQS06do1NlFz_cNOQRB2-110" value="measurement_id" style="shape=partialRectangle;connectable=0;fillColor=none;top=0;left=0;bottom=0;right=0;align=left;spacingLeft=6;overflow=hidden;whiteSpace=wrap;html=1;" parent="MQS06do1NlFz_cNOQRB2-108" vertex="1">
          <mxGeometry x="49" width="131" height="30" as="geometry">
            <mxRectangle width="131" height="30" as="alternateBounds" />
          </mxGeometry>
        </mxCell>
        <mxCell id="MQS06do1NlFz_cNOQRB2-114" value="" style="shape=tableRow;horizontal=0;startSize=0;swimlaneHead=0;swimlaneBody=0;fillColor=none;collapsible=0;dropTarget=0;points=[[0,0.5],[1,0.5]];portConstraint=eastwest;top=0;left=0;right=0;bottom=0;" parent="MQS06do1NlFz_cNOQRB2-104" vertex="1">
          <mxGeometry y="150" width="180" height="70" as="geometry" />
        </mxCell>
        <mxCell id="MQS06do1NlFz_cNOQRB2-115" value="" style="shape=partialRectangle;connectable=0;fillColor=none;top=0;left=0;bottom=0;right=0;editable=1;overflow=hidden;whiteSpace=wrap;html=1;" parent="MQS06do1NlFz_cNOQRB2-114" vertex="1">
          <mxGeometry width="49" height="70" as="geometry">
            <mxRectangle width="49" height="70" as="alternateBounds" />
          </mxGeometry>
        </mxCell>
        <mxCell id="MQS06do1NlFz_cNOQRB2-116" value="category&lt;div&gt;measurement&lt;/div&gt;&lt;div&gt;unit&lt;/div&gt;" style="shape=partialRectangle;connectable=0;fillColor=none;top=0;left=0;bottom=0;right=0;align=left;spacingLeft=6;overflow=hidden;whiteSpace=wrap;html=1;" parent="MQS06do1NlFz_cNOQRB2-114" vertex="1">
          <mxGeometry x="49" width="131" height="70" as="geometry">
            <mxRectangle width="131" height="70" as="alternateBounds" />
          </mxGeometry>
        </mxCell>
        <mxCell id="MQS06do1NlFz_cNOQRB2-117" value="station" style="shape=table;startSize=30;container=1;collapsible=1;childLayout=tableLayout;fixedRows=1;rowLines=0;fontStyle=1;align=center;resizeLast=1;html=1;whiteSpace=wrap;" parent="1" vertex="1">
          <mxGeometry x="310" y="1850" width="180" height="190" as="geometry" />
        </mxCell>
        <mxCell id="MQS06do1NlFz_cNOQRB2-118" value="" style="shape=tableRow;horizontal=0;startSize=0;swimlaneHead=0;swimlaneBody=0;fillColor=none;collapsible=0;dropTarget=0;points=[[0,0.5],[1,0.5]];portConstraint=eastwest;top=0;left=0;right=0;bottom=0;html=1;" parent="MQS06do1NlFz_cNOQRB2-117" vertex="1">
          <mxGeometry y="30" width="180" height="30" as="geometry" />
        </mxCell>
        <mxCell id="MQS06do1NlFz_cNOQRB2-119" value="PK" style="shape=partialRectangle;connectable=0;fillColor=none;top=0;left=0;bottom=0;right=0;fontStyle=1;overflow=hidden;html=1;whiteSpace=wrap;" parent="MQS06do1NlFz_cNOQRB2-118" vertex="1">
          <mxGeometry width="60" height="30" as="geometry">
            <mxRectangle width="60" height="30" as="alternateBounds" />
          </mxGeometry>
        </mxCell>
        <mxCell id="MQS06do1NlFz_cNOQRB2-120" value="code" style="shape=partialRectangle;connectable=0;fillColor=none;top=0;left=0;bottom=0;right=0;align=left;spacingLeft=6;fontStyle=5;overflow=hidden;html=1;whiteSpace=wrap;" parent="MQS06do1NlFz_cNOQRB2-118" vertex="1">
          <mxGeometry x="60" width="120" height="30" as="geometry">
            <mxRectangle width="120" height="30" as="alternateBounds" />
          </mxGeometry>
        </mxCell>
        <mxCell id="MQS06do1NlFz_cNOQRB2-121" value="" style="shape=tableRow;horizontal=0;startSize=0;swimlaneHead=0;swimlaneBody=0;fillColor=none;collapsible=0;dropTarget=0;points=[[0,0.5],[1,0.5]];portConstraint=eastwest;top=0;left=0;right=0;bottom=1;html=1;" parent="MQS06do1NlFz_cNOQRB2-117" vertex="1">
          <mxGeometry y="60" width="180" height="20" as="geometry" />
        </mxCell>
        <mxCell id="MQS06do1NlFz_cNOQRB2-122" value="" style="shape=partialRectangle;connectable=0;fillColor=none;top=0;left=0;bottom=0;right=0;fontStyle=1;overflow=hidden;html=1;whiteSpace=wrap;" parent="MQS06do1NlFz_cNOQRB2-121" vertex="1">
          <mxGeometry width="60" height="20" as="geometry">
            <mxRectangle width="60" height="20" as="alternateBounds" />
          </mxGeometry>
        </mxCell>
        <mxCell id="MQS06do1NlFz_cNOQRB2-123" value="" style="shape=partialRectangle;connectable=0;fillColor=none;top=0;left=0;bottom=0;right=0;align=left;spacingLeft=6;fontStyle=5;overflow=hidden;html=1;whiteSpace=wrap;" parent="MQS06do1NlFz_cNOQRB2-121" vertex="1">
          <mxGeometry x="60" width="120" height="20" as="geometry">
            <mxRectangle width="120" height="20" as="alternateBounds" />
          </mxGeometry>
        </mxCell>
        <mxCell id="MQS06do1NlFz_cNOQRB2-124" value="" style="shape=tableRow;horizontal=0;startSize=0;swimlaneHead=0;swimlaneBody=0;fillColor=none;collapsible=0;dropTarget=0;points=[[0,0.5],[1,0.5]];portConstraint=eastwest;top=0;left=0;right=0;bottom=0;html=1;" parent="MQS06do1NlFz_cNOQRB2-117" vertex="1">
          <mxGeometry y="80" width="180" height="30" as="geometry" />
        </mxCell>
        <mxCell id="MQS06do1NlFz_cNOQRB2-125" value="" style="shape=partialRectangle;connectable=0;fillColor=none;top=0;left=0;bottom=0;right=0;editable=1;overflow=hidden;html=1;whiteSpace=wrap;" parent="MQS06do1NlFz_cNOQRB2-124" vertex="1">
          <mxGeometry width="60" height="30" as="geometry">
            <mxRectangle width="60" height="30" as="alternateBounds" />
          </mxGeometry>
        </mxCell>
        <mxCell id="MQS06do1NlFz_cNOQRB2-126" value="city" style="shape=partialRectangle;connectable=0;fillColor=none;top=0;left=0;bottom=0;right=0;align=left;spacingLeft=6;overflow=hidden;html=1;whiteSpace=wrap;" parent="MQS06do1NlFz_cNOQRB2-124" vertex="1">
          <mxGeometry x="60" width="120" height="30" as="geometry">
            <mxRectangle width="120" height="30" as="alternateBounds" />
          </mxGeometry>
        </mxCell>
        <mxCell id="MQS06do1NlFz_cNOQRB2-127" value="" style="shape=tableRow;horizontal=0;startSize=0;swimlaneHead=0;swimlaneBody=0;fillColor=none;collapsible=0;dropTarget=0;points=[[0,0.5],[1,0.5]];portConstraint=eastwest;top=0;left=0;right=0;bottom=0;html=1;" parent="MQS06do1NlFz_cNOQRB2-117" vertex="1">
          <mxGeometry y="110" width="180" height="80" as="geometry" />
        </mxCell>
        <mxCell id="MQS06do1NlFz_cNOQRB2-128" value="" style="shape=partialRectangle;connectable=0;fillColor=none;top=0;left=0;bottom=0;right=0;editable=1;overflow=hidden;html=1;whiteSpace=wrap;" parent="MQS06do1NlFz_cNOQRB2-127" vertex="1">
          <mxGeometry width="60" height="80" as="geometry">
            <mxRectangle width="60" height="80" as="alternateBounds" />
          </mxGeometry>
        </mxCell>
        <mxCell id="MQS06do1NlFz_cNOQRB2-129" value="latitude&lt;div&gt;longtitude&lt;/div&gt;&lt;div&gt;date_install&lt;/div&gt;" style="shape=partialRectangle;connectable=0;fillColor=none;top=0;left=0;bottom=0;right=0;align=left;spacingLeft=6;overflow=hidden;html=1;whiteSpace=wrap;" parent="MQS06do1NlFz_cNOQRB2-127" vertex="1">
          <mxGeometry x="60" width="120" height="80" as="geometry">
            <mxRectangle width="120" height="80" as="alternateBounds" />
          </mxGeometry>
        </mxCell>
        <mxCell id="MQS06do1NlFz_cNOQRB2-131" value="sensor" style="shape=table;startSize=30;container=1;collapsible=1;childLayout=tableLayout;fixedRows=1;rowLines=0;fontStyle=1;align=center;resizeLast=1;html=1;whiteSpace=wrap;" parent="1" vertex="1">
          <mxGeometry x="550" y="2120" width="180" height="150" as="geometry" />
        </mxCell>
        <mxCell id="MQS06do1NlFz_cNOQRB2-132" value="" style="shape=tableRow;horizontal=0;startSize=0;swimlaneHead=0;swimlaneBody=0;fillColor=none;collapsible=0;dropTarget=0;points=[[0,0.5],[1,0.5]];portConstraint=eastwest;top=0;left=0;right=0;bottom=0;html=1;" parent="MQS06do1NlFz_cNOQRB2-131" vertex="1">
          <mxGeometry y="30" width="180" height="30" as="geometry" />
        </mxCell>
        <mxCell id="MQS06do1NlFz_cNOQRB2-133" value="PK" style="shape=partialRectangle;connectable=0;fillColor=none;top=0;left=0;bottom=0;right=0;fontStyle=1;overflow=hidden;html=1;whiteSpace=wrap;" parent="MQS06do1NlFz_cNOQRB2-132" vertex="1">
          <mxGeometry width="60" height="30" as="geometry">
            <mxRectangle width="60" height="30" as="alternateBounds" />
          </mxGeometry>
        </mxCell>
        <mxCell id="MQS06do1NlFz_cNOQRB2-134" value="id" style="shape=partialRectangle;connectable=0;fillColor=none;top=0;left=0;bottom=0;right=0;align=left;spacingLeft=6;fontStyle=5;overflow=hidden;html=1;whiteSpace=wrap;" parent="MQS06do1NlFz_cNOQRB2-132" vertex="1">
          <mxGeometry x="60" width="120" height="30" as="geometry">
            <mxRectangle width="120" height="30" as="alternateBounds" />
          </mxGeometry>
        </mxCell>
        <mxCell id="MQS06do1NlFz_cNOQRB2-135" value="" style="shape=tableRow;horizontal=0;startSize=0;swimlaneHead=0;swimlaneBody=0;fillColor=none;collapsible=0;dropTarget=0;points=[[0,0.5],[1,0.5]];portConstraint=eastwest;top=0;left=0;right=0;bottom=1;html=1;" parent="MQS06do1NlFz_cNOQRB2-131" vertex="1">
          <mxGeometry y="60" width="180" height="30" as="geometry" />
        </mxCell>
        <mxCell id="MQS06do1NlFz_cNOQRB2-136" value="" style="shape=partialRectangle;connectable=0;fillColor=none;top=0;left=0;bottom=0;right=0;fontStyle=1;overflow=hidden;html=1;whiteSpace=wrap;" parent="MQS06do1NlFz_cNOQRB2-135" vertex="1">
          <mxGeometry width="60" height="30" as="geometry">
            <mxRectangle width="60" height="30" as="alternateBounds" />
          </mxGeometry>
        </mxCell>
        <mxCell id="MQS06do1NlFz_cNOQRB2-137" value="" style="shape=partialRectangle;connectable=0;fillColor=none;top=0;left=0;bottom=0;right=0;align=left;spacingLeft=6;fontStyle=5;overflow=hidden;html=1;whiteSpace=wrap;" parent="MQS06do1NlFz_cNOQRB2-135" vertex="1">
          <mxGeometry x="60" width="120" height="30" as="geometry">
            <mxRectangle width="120" height="30" as="alternateBounds" />
          </mxGeometry>
        </mxCell>
        <mxCell id="MQS06do1NlFz_cNOQRB2-138" value="" style="shape=tableRow;horizontal=0;startSize=0;swimlaneHead=0;swimlaneBody=0;fillColor=none;collapsible=0;dropTarget=0;points=[[0,0.5],[1,0.5]];portConstraint=eastwest;top=0;left=0;right=0;bottom=0;html=1;" parent="MQS06do1NlFz_cNOQRB2-131" vertex="1">
          <mxGeometry y="90" width="180" height="30" as="geometry" />
        </mxCell>
        <mxCell id="MQS06do1NlFz_cNOQRB2-139" value="FK" style="shape=partialRectangle;connectable=0;fillColor=none;top=0;left=0;bottom=0;right=0;editable=1;overflow=hidden;html=1;whiteSpace=wrap;" parent="MQS06do1NlFz_cNOQRB2-138" vertex="1">
          <mxGeometry width="60" height="30" as="geometry">
            <mxRectangle width="60" height="30" as="alternateBounds" />
          </mxGeometry>
        </mxCell>
        <mxCell id="MQS06do1NlFz_cNOQRB2-140" value="station_code" style="shape=partialRectangle;connectable=0;fillColor=none;top=0;left=0;bottom=0;right=0;align=left;spacingLeft=6;overflow=hidden;html=1;whiteSpace=wrap;" parent="MQS06do1NlFz_cNOQRB2-138" vertex="1">
          <mxGeometry x="60" width="120" height="30" as="geometry">
            <mxRectangle width="120" height="30" as="alternateBounds" />
          </mxGeometry>
        </mxCell>
        <mxCell id="MQS06do1NlFz_cNOQRB2-141" value="" style="shape=tableRow;horizontal=0;startSize=0;swimlaneHead=0;swimlaneBody=0;fillColor=none;collapsible=0;dropTarget=0;points=[[0,0.5],[1,0.5]];portConstraint=eastwest;top=0;left=0;right=0;bottom=0;html=1;" parent="MQS06do1NlFz_cNOQRB2-131" vertex="1">
          <mxGeometry y="120" width="180" height="30" as="geometry" />
        </mxCell>
        <mxCell id="MQS06do1NlFz_cNOQRB2-142" value="" style="shape=partialRectangle;connectable=0;fillColor=none;top=0;left=0;bottom=0;right=0;editable=1;overflow=hidden;html=1;whiteSpace=wrap;" parent="MQS06do1NlFz_cNOQRB2-141" vertex="1">
          <mxGeometry width="60" height="30" as="geometry">
            <mxRectangle width="60" height="30" as="alternateBounds" />
          </mxGeometry>
        </mxCell>
        <mxCell id="MQS06do1NlFz_cNOQRB2-143" value="category" style="shape=partialRectangle;connectable=0;fillColor=none;top=0;left=0;bottom=0;right=0;align=left;spacingLeft=6;overflow=hidden;html=1;whiteSpace=wrap;" parent="MQS06do1NlFz_cNOQRB2-141" vertex="1">
          <mxGeometry x="60" width="120" height="30" as="geometry">
            <mxRectangle width="120" height="30" as="alternateBounds" />
          </mxGeometry>
        </mxCell>
        <mxCell id="MQS06do1NlFz_cNOQRB2-144" value="forecast" style="shape=table;startSize=30;container=1;collapsible=1;childLayout=tableLayout;fixedRows=1;rowLines=0;fontStyle=1;align=center;resizeLast=1;html=1;" parent="1" vertex="1">
          <mxGeometry y="2150" width="180" height="150" as="geometry" />
        </mxCell>
        <mxCell id="MQS06do1NlFz_cNOQRB2-145" value="" style="shape=tableRow;horizontal=0;startSize=0;swimlaneHead=0;swimlaneBody=0;fillColor=none;collapsible=0;dropTarget=0;points=[[0,0.5],[1,0.5]];portConstraint=eastwest;top=0;left=0;right=0;bottom=1;" parent="MQS06do1NlFz_cNOQRB2-144" vertex="1">
          <mxGeometry y="30" width="180" height="30" as="geometry" />
        </mxCell>
        <mxCell id="MQS06do1NlFz_cNOQRB2-146" value="PK" style="shape=partialRectangle;connectable=0;fillColor=none;top=0;left=0;bottom=0;right=0;fontStyle=1;overflow=hidden;whiteSpace=wrap;html=1;" parent="MQS06do1NlFz_cNOQRB2-145" vertex="1">
          <mxGeometry width="30" height="30" as="geometry">
            <mxRectangle width="30" height="30" as="alternateBounds" />
          </mxGeometry>
        </mxCell>
        <mxCell id="MQS06do1NlFz_cNOQRB2-147" value="UniqueID" style="shape=partialRectangle;connectable=0;fillColor=none;top=0;left=0;bottom=0;right=0;align=left;spacingLeft=6;fontStyle=5;overflow=hidden;whiteSpace=wrap;html=1;" parent="MQS06do1NlFz_cNOQRB2-145" vertex="1">
          <mxGeometry x="30" width="150" height="30" as="geometry">
            <mxRectangle width="150" height="30" as="alternateBounds" />
          </mxGeometry>
        </mxCell>
        <mxCell id="MQS06do1NlFz_cNOQRB2-148" value="" style="shape=tableRow;horizontal=0;startSize=0;swimlaneHead=0;swimlaneBody=0;fillColor=none;collapsible=0;dropTarget=0;points=[[0,0.5],[1,0.5]];portConstraint=eastwest;top=0;left=0;right=0;bottom=0;" parent="MQS06do1NlFz_cNOQRB2-144" vertex="1">
          <mxGeometry y="60" width="180" height="30" as="geometry" />
        </mxCell>
        <mxCell id="MQS06do1NlFz_cNOQRB2-149" value="" style="shape=partialRectangle;connectable=0;fillColor=none;top=0;left=0;bottom=0;right=0;editable=1;overflow=hidden;whiteSpace=wrap;html=1;" parent="MQS06do1NlFz_cNOQRB2-148" vertex="1">
          <mxGeometry width="30" height="30" as="geometry">
            <mxRectangle width="30" height="30" as="alternateBounds" />
          </mxGeometry>
        </mxCell>
        <mxCell id="MQS06do1NlFz_cNOQRB2-150" value="Row 1" style="shape=partialRectangle;connectable=0;fillColor=none;top=0;left=0;bottom=0;right=0;align=left;spacingLeft=6;overflow=hidden;whiteSpace=wrap;html=1;" parent="MQS06do1NlFz_cNOQRB2-148" vertex="1">
          <mxGeometry x="30" width="150" height="30" as="geometry">
            <mxRectangle width="150" height="30" as="alternateBounds" />
          </mxGeometry>
        </mxCell>
        <mxCell id="MQS06do1NlFz_cNOQRB2-151" value="" style="shape=tableRow;horizontal=0;startSize=0;swimlaneHead=0;swimlaneBody=0;fillColor=none;collapsible=0;dropTarget=0;points=[[0,0.5],[1,0.5]];portConstraint=eastwest;top=0;left=0;right=0;bottom=0;" parent="MQS06do1NlFz_cNOQRB2-144" vertex="1">
          <mxGeometry y="90" width="180" height="30" as="geometry" />
        </mxCell>
        <mxCell id="MQS06do1NlFz_cNOQRB2-152" value="" style="shape=partialRectangle;connectable=0;fillColor=none;top=0;left=0;bottom=0;right=0;editable=1;overflow=hidden;whiteSpace=wrap;html=1;" parent="MQS06do1NlFz_cNOQRB2-151" vertex="1">
          <mxGeometry width="30" height="30" as="geometry">
            <mxRectangle width="30" height="30" as="alternateBounds" />
          </mxGeometry>
        </mxCell>
        <mxCell id="MQS06do1NlFz_cNOQRB2-153" value="Row 2" style="shape=partialRectangle;connectable=0;fillColor=none;top=0;left=0;bottom=0;right=0;align=left;spacingLeft=6;overflow=hidden;whiteSpace=wrap;html=1;" parent="MQS06do1NlFz_cNOQRB2-151" vertex="1">
          <mxGeometry x="30" width="150" height="30" as="geometry">
            <mxRectangle width="150" height="30" as="alternateBounds" />
          </mxGeometry>
        </mxCell>
        <mxCell id="MQS06do1NlFz_cNOQRB2-154" value="" style="shape=tableRow;horizontal=0;startSize=0;swimlaneHead=0;swimlaneBody=0;fillColor=none;collapsible=0;dropTarget=0;points=[[0,0.5],[1,0.5]];portConstraint=eastwest;top=0;left=0;right=0;bottom=0;" parent="MQS06do1NlFz_cNOQRB2-144" vertex="1">
          <mxGeometry y="120" width="180" height="30" as="geometry" />
        </mxCell>
        <mxCell id="MQS06do1NlFz_cNOQRB2-155" value="" style="shape=partialRectangle;connectable=0;fillColor=none;top=0;left=0;bottom=0;right=0;editable=1;overflow=hidden;whiteSpace=wrap;html=1;" parent="MQS06do1NlFz_cNOQRB2-154" vertex="1">
          <mxGeometry width="30" height="30" as="geometry">
            <mxRectangle width="30" height="30" as="alternateBounds" />
          </mxGeometry>
        </mxCell>
        <mxCell id="MQS06do1NlFz_cNOQRB2-156" value="Row 3" style="shape=partialRectangle;connectable=0;fillColor=none;top=0;left=0;bottom=0;right=0;align=left;spacingLeft=6;overflow=hidden;whiteSpace=wrap;html=1;" parent="MQS06do1NlFz_cNOQRB2-154" vertex="1">
          <mxGeometry x="30" width="150" height="30" as="geometry">
            <mxRectangle width="150" height="30" as="alternateBounds" />
          </mxGeometry>
        </mxCell>
        <mxCell id="MQS06do1NlFz_cNOQRB2-157" value="" style="edgeStyle=entityRelationEdgeStyle;fontSize=12;html=1;endArrow=ERoneToMany;rounded=0;startSize=8;endSize=8;curved=1;" parent="1" source="MQS06do1NlFz_cNOQRB2-118" target="MQS06do1NlFz_cNOQRB2-111" edge="1">
          <mxGeometry width="100" height="100" relative="1" as="geometry">
            <mxPoint x="330" y="2130" as="sourcePoint" />
            <mxPoint x="430" y="2030" as="targetPoint" />
          </mxGeometry>
        </mxCell>
        <mxCell id="MQS06do1NlFz_cNOQRB2-158" value="" style="edgeStyle=entityRelationEdgeStyle;fontSize=12;html=1;endArrow=ERoneToMany;rounded=0;startSize=8;endSize=8;curved=1;exitX=0;exitY=0.5;exitDx=0;exitDy=0;" parent="1" source="MQS06do1NlFz_cNOQRB2-132" target="MQS06do1NlFz_cNOQRB2-105" edge="1">
          <mxGeometry width="100" height="100" relative="1" as="geometry">
            <mxPoint x="130" y="2175" as="sourcePoint" />
            <mxPoint x="360" y="2030" as="targetPoint" />
          </mxGeometry>
        </mxCell>
        <mxCell id="MQS06do1NlFz_cNOQRB2-159" value="" style="edgeStyle=entityRelationEdgeStyle;fontSize=12;html=1;endArrow=ERoneToMany;rounded=0;startSize=8;endSize=8;curved=1;entryX=0;entryY=0.75;entryDx=0;entryDy=0;exitX=1;exitY=0.5;exitDx=0;exitDy=0;" parent="1" source="MQS06do1NlFz_cNOQRB2-118" target="MQS06do1NlFz_cNOQRB2-131" edge="1">
          <mxGeometry width="100" height="100" relative="1" as="geometry">
            <mxPoint x="390" y="1890" as="sourcePoint" />
            <mxPoint x="353" y="2235.0099999999998" as="targetPoint" />
            <Array as="points">
              <mxPoint x="280" y="2195" />
              <mxPoint x="340" y="1960" />
              <mxPoint x="290" y="2040" />
              <mxPoint x="360" y="1970" />
              <mxPoint x="353" y="1970" />
              <mxPoint x="240" y="2055" />
            </Array>
          </mxGeometry>
        </mxCell>
        <mxCell id="MQS06do1NlFz_cNOQRB2-160" value="&lt;div&gt;&lt;font style=&quot;font-size: 14px;&quot;&gt;&lt;b&gt;DB&lt;/b&gt;&lt;/font&gt;&lt;/div&gt;&lt;font style=&quot;font-size: 14px;&quot;&gt;&lt;b&gt;Schema&lt;/b&gt;&lt;/font&gt;" style="text;html=1;align=center;verticalAlign=middle;whiteSpace=wrap;rounded=0;" parent="1" vertex="1">
          <mxGeometry x="320" y="1800" width="60" height="30" as="geometry" />
        </mxCell>
      </root>
    </mxGraphModel>
  </diagram>
</mxfile>
